<svg width="203" height="280" viewBox="0 0 203 280" fill="none" xmlns="http://www.w3.org/2000/svg">
<path d="M0.0300293 254.57L0.120056 253.84L28.77 16.34C28.77 9.41003 61.3 3.80005 101.41 3.80005C141.52 3.80005 174.03 9.41003 174.03 16.34L202.68 253.84L202.76 254.57C171.471 270.929 136.688 279.473 101.38 279.473C66.0724 279.473 31.2892 270.929 0 254.57H0.0300293Z" fill="#BE1E2D"/>
<path d="M202.38 254.57C201.761 255.443 200.898 256.114 199.9 256.5C171.971 270.162 141.522 277.91 110.46 279.26C72.1686 281.011 34.0968 272.585 0.120117 254.84L0.210083 254.11L28.8701 16.6099C28.8701 14.1499 32.9901 11.8499 40.1001 9.90991L38.0301 26.9799L33.0301 68.6399L26.7701 120.55C22.7701 153.34 9.45008 198.73 27.8301 228.98C38.9401 247.26 60.4501 256.98 81.6301 259.92C104.25 263.07 129.86 261.92 152.34 258.03C160.775 256.574 169.121 254.648 177.34 252.26C179.58 251.61 201.71 245.2 201.49 243.72L202.65 251.72C202.857 252.585 202.826 253.491 202.56 254.34C202.506 254.421 202.446 254.498 202.38 254.57Z" fill="#A11D27"/>
<path d="M101.42 27.82C140.56 27.82 172.29 21.8161 172.29 14.41C172.29 7.00387 140.56 1 101.42 1C62.2796 1 30.55 7.00387 30.55 14.41C30.55 21.8161 62.2796 27.82 101.42 27.82Z" fill="#BE1E2D" stroke="white" stroke-miterlimit="10"/>
<g opacity="0.71">
<path opacity="0.71" d="M165.79 38.1699C167.13 39.4499 167.12 40.9699 167.33 42.5999L167.89 47.1599C173.37 91.7099 179.18 139.27 184 183.92L182 184.16C180.25 172.05 178.64 159.91 177 147.79C172.72 115.98 168 79.2899 164 47.6499L163.42 43.0999C163.23 41.4699 162.84 39.9899 163.83 38.4199L165.83 38.1699H165.79Z" fill="white"/>
</g>
</svg>
